<?xml version="1.0"?>
<!--Icons from directory ""-->
<svg xmlns="http://www.w3.org/2000/svg" width="32" height="128" viewBox="0 0 32 128"><svg xmlns:xlink="http://www.w3.org/1999/xlink" id="flat-icon-facebook" xml:space="preserve" viewBox="0 0 32 32" version="1.1" y="0" x="0px" enable-background="new 0 0 32 32" width="32" height="32"><g id="flat-icon-facebook-facebook">	<path d="m29.9 2.1c-2.1-2.1-4.2-2.1-7.8-2.1h-12.2c-3.6 0-5.7 0-7.8 2.1s-2.1 4.2-2.1 7.8v12.2c0 3.6 0 5.7 2.1 7.8s4.2 2.1 7.8 2.1h12.2c3.6 0 5.7 0 7.8-2.1s2.1-4.2 2.1-7.8v-12.2c0-3.6 0-5.7-2.1-7.8z" fill="#507CBD"/>	<path d="m16.8 14v-1.2c0-0.4 0.3-0.5 0.5-0.5h1.3v-2h-1.8c-1.9 0-2.4 1.5-2.4 2.4v1.3h-1.1v2h1.1v5.7h2.4v-5.7h1.6l0.2-2h-1.8z" fill="#fff"/></g></svg><svg xmlns:xlink="http://www.w3.org/1999/xlink" id="flat-icon-google-plus" xml:space="preserve" viewBox="0 0 32 32" version="1.1" y="32" x="0px" enable-background="new 0 0 32 32" width="32" height="32"><g id="flat-icon-google-plus-google_x2B_">	<path d="m29.9 2.1c-2.1-2.1-4.2-2.1-7.8-2.1h-12.2c-3.7 0-5.7 0-7.8 2.1s-2.1 4.2-2.1 7.8v12.2c0 3.6 0 5.7 2.1 7.8s4.1 2.1 7.8 2.1h12.2c3.6 0 5.7 0 7.8-2.1s2.1-4.2 2.1-7.8v-12.2c0-3.6 0-5.7-2.1-7.8z" fill="#4E4E54"/>	<g fill="#fff">		<path d="m16.1 16.9c-0.3-0.2-0.9-0.8-0.9-1.1 0-0.4 0.1-0.6 0.7-1s1-1.1 1-1.8c0-0.9-0.4-1.7-1.1-2h1.1l0.8-0.6h-3.5c-1.6 0-3 1.2-3 2.5 0 1.4 1.1 2.5 2.6 2.5h0.3c-0.1 0.2-0.2 0.4-0.2 0.6 0 0.4 0.2 0.7 0.5 1h-0.6c-1.9 0-3.4 1.2-3.4 2.5s1.6 2 3.6 2c2.2 0 3.4-1.2 3.4-2.5-0.1-0.8-0.4-1.4-1.3-2.1zm-1.9-1.7c-0.9 0-1.7-1-1.9-2.2s0.4-2.1 1.3-2c0.9 0 1.7 1 1.9 2.1 0.2 1.2-0.4 2.1-1.3 2.1zm-0.3 5.9c-1.3 0-2.3-0.8-2.3-1.9 0-1 1.2-1.8 2.5-1.8 0.3 0 0.6 0.1 0.9 0.1 0.7 0.5 1.2 0.8 1.4 1.4v0.4c0 1-0.6 1.8-2.5 1.8z"/>		<polygon points="19.8 15.3 19.8 13.9 18.7 13.9 18.7 15.3 17.4 15.3 17.4 16.4 18.7 16.4 18.7 17.7 19.8 17.7 19.8 16.4 21.2 16.4 21.2 15.3"/>	</g></g></svg><svg xmlns:xlink="http://www.w3.org/1999/xlink" id="flat-icon-pinterest" xml:space="preserve" viewBox="0 0 32 32" version="1.1" y="64" x="0px" enable-background="new 0 0 32 32" width="32" height="32"><g id="flat-icon-pinterest-pinterest">	<path d="m29.9 2.1c-2.1-2.1-4.2-2.1-7.8-2.1h-12.2c-3.6 0-5.7 0-7.8 2.1s-2.1 4.2-2.1 7.8v12.2c0 3.6 0 5.7 2.1 7.8s4.2 2.1 7.8 2.1h12.2c3.6 0 5.7 0 7.8-2.1s2.1-4.2 2.1-7.8v-12.2c0-3.6 0-5.7-2.1-7.8z" fill="#F06361"/>	<path d="m15.7 10.6c-3 0-5.4 2.4-5.4 5.4 0 2.2 1.3 4.1 3.3 5 0-0.4 0-0.8 0.1-1.3 0.1-0.4 0.7-3 0.7-3s-0.2-0.3-0.2-0.9c0-0.8 0.5-1.4 1.1-1.4 0.5 0 0.7 0.4 0.7 0.8 0 0.5-0.3 1.2-0.5 1.9-0.1 0.6 0.3 1 0.9 1 1 0 1.7-1.3 1.7-2.9 0-1.2-0.8-2.1-2.3-2.1-1.7 0-2.7 1.2-2.7 2.6 0 0.5 0.1 0.8 0.4 1.1 0.1 0.1 0.1 0.2 0.1 0.3s-0.1 0.3-0.1 0.4-0.1 0.2-0.3 0.1c-0.8-0.3-1.1-1.1-1.1-2.1 0-1.5 1.3-3.4 3.9-3.4 2.1 0 3.5 1.5 3.5 3.1 0 2.1-1.2 3.7-2.9 3.7-0.6 0-1.1-0.3-1.3-0.7 0 0-0.3 1.3-0.4 1.5-0.1 0.4-0.3 0.8-0.5 1.2 0.5 0.1 1 0.2 1.5 0.2 3 0 5.4-2.4 5.4-5.4-0.1-2.7-2.5-5.1-5.6-5.1z" fill="#fff"/></g></svg><svg xmlns:xlink="http://www.w3.org/1999/xlink" id="flat-icon-twitter" xml:space="preserve" viewBox="0 0 32 32" version="1.1" y="96" x="0px" enable-background="new 0 0 32 32" width="32" height="32"><g id="flat-icon-twitter-twitter">	<path d="m29.9 2.1c-2.1-2.1-4.2-2.1-7.8-2.1h-12.2c-3.6 0-5.7 0-7.8 2.1s-2.1 4.2-2.1 7.8v12.2c0 3.6 0 5.7 2.1 7.8s4.2 2.1 7.8 2.1h12.2c3.6 0 5.7 0 7.8-2.1s2.1-4.2 2.1-7.8v-12.2c0-3.6 0-5.7-2.1-7.8z" fill="#64CBEE"/>	<path d="m21.5 12.1c-0.4 0.2-0.9 0.3-1.4 0.4 0.5-0.3 0.9-0.8 1-1.4-0.5 0.3-1 0.5-1.5 0.6-0.4-0.5-1-0.8-1.7-0.8-1.3 0-2.3 1.1-2.3 2.5 0 0.2 0 0.4 0.1 0.6-1.9-0.1-3.7-1.1-4.8-2.6-0.2 0.4-0.3 0.8-0.3 1.3 0 0.9 0.4 1.7 1 2.1-0.4 0-0.7-0.1-1.1-0.3 0 1.2 0.8 2.2 1.9 2.5-0.2 0.1-0.4 0.1-0.6 0.1h-0.4c0.3 1 1.2 1.7 2.2 1.8-0.8 0.7-1.8 1.1-2.9 1.1h-0.6c1 0.7 2.3 1.1 3.6 1.1 4.3 0 6.7-3.9 6.7-7.2v-0.3c0.4-0.5 0.8-1 1.1-1.5z" fill="#fff"/></g></svg></svg>
