<?xml version="1.0" encoding="utf-8"?>
<!-- Generated by IcoMoon.io -->
<!DOCTYPE svg PUBLIC "-//W3C//DTD SVG 1.1//EN" "http://www.w3.org/Graphics/SVG/1.1/DTD/svg11.dtd">

<svg version="1.1" xmlns="http://www.w3.org/2000/svg" xmlns:xlink="http://www.w3.org/1999/xlink" width="144" height="16" viewBox="0 0 144 16">
<g transform="translate(0 0)">
	<path d="M8.735 1c0 0-3.14 0-4.187 0-1.877 0-3.643 1.422-3.643 3.069 0 1.683 1.279 3.042 3.189 3.042 0.133 0 0.262-0.003 0.388-0.012-0.124 0.237-0.213 0.505-0.213 0.782 0 0.468 0.252 0.847 0.57 1.157-0.24 0-0.473 0.007-0.726 0.007-2.325-0-4.114 1.481-4.114 3.016 0 1.512 1.962 2.458 4.286 2.458 2.65 0 4.114-1.504 4.114-3.016 0-1.213-0.358-1.939-1.464-2.721-0.378-0.268-1.102-0.919-1.102-1.302 0-0.449 0.128-0.67 0.804-1.198 0.692-0.541 1.182-1.302 1.182-2.186 0-1.053-0.469-2.080-1.35-2.418h1.327l0.937-0.677zM7.273 11.242c0.033 0.14 0.051 0.284 0.051 0.432 0 1.222-0.787 2.177-3.046 2.177-1.607 0-2.767-1.017-2.767-2.239 0-1.198 1.439-2.194 3.046-2.177 0.375 0.004 0.724 0.064 1.042 0.167 0.872 0.607 1.498 0.949 1.675 1.641zM4.7 6.684c-1.079-0.032-2.104-1.207-2.29-2.623s0.537-2.501 1.615-2.469c1.078 0.032 2.104 1.169 2.29 2.585s-0.537 2.538-1.616 2.506zM13 4v-3h-1v3h-3v1h3v3h1v-3h3v-1z" fill="#444444"></path>
</g>
<g transform="translate(32 0)">
	<path d="M10.5 3c-1.381 0-2.5 1.119-2.5 2.5v1.5h-2v2h2v7h2v-7h2.25l0.5-2h-2.75v-1.5c0-0.276 0.224-0.5 0.5-0.5h2.5v-2h-2.5z" fill="#444444"></path>
</g>
<g transform="translate(64 0)">
	<path d="M16 3.038c-0.589 0.261-1.221 0.438-1.885 0.517 0.678-0.406 1.198-1.050 1.443-1.816-0.634 0.376-1.337 0.649-2.085 0.797-0.599-0.638-1.452-1.037-2.396-1.037-1.813 0-3.283 1.47-3.283 3.282 0 0.257 0.029 0.508 0.085 0.748-2.728-0.137-5.147-1.444-6.766-3.43-0.283 0.485-0.444 1.049-0.444 1.65 0 1.139 0.579 2.144 1.46 2.732-0.538-0.017-1.044-0.165-1.487-0.411-0 0.014-0 0.027-0 0.041 0 1.59 1.132 2.917 2.633 3.219-0.275 0.075-0.565 0.115-0.865 0.115-0.212 0-0.417-0.021-0.618-0.059 0.418 1.304 1.63 2.253 3.066 2.28-1.123 0.88-2.539 1.405-4.077 1.405-0.265 0-0.526-0.016-0.783-0.046 1.453 0.931 3.178 1.475 5.032 1.475 6.038 0 9.34-5.002 9.34-9.34 0-0.142-0.003-0.284-0.010-0.425 0.642-0.463 1.198-1.041 1.638-1.699z" fill="#444444"></path>
</g>
<g transform="translate(96 0)">
	<path d="M8 0c-4.418 0-8 3.582-8 8 0 3.389 2.109 6.284 5.085 7.45-0.070-0.633-0.133-1.604 0.028-2.295 0.145-0.624 0.938-3.977 0.938-3.977s-0.239-0.479-0.239-1.188c0-1.112 0.645-1.943 1.448-1.943 0.683 0 1.012 0.512 1.012 1.127 0 0.686-0.437 1.713-0.663 2.663-0.188 0.796 0.399 1.446 1.185 1.446 1.422 0 2.515-1.499 2.515-3.664 0-1.915-1.376-3.255-3.342-3.255-2.276 0-3.612 1.707-3.612 3.472 0 0.688 0.265 1.425 0.595 1.826 0.065 0.079 0.075 0.149 0.055 0.229-0.061 0.253-0.196 0.796-0.222 0.907-0.035 0.146-0.116 0.177-0.268 0.107-0.999-0.465-1.624-1.926-1.624-3.099 0-2.524 1.834-4.841 5.286-4.841 2.775 0 4.932 1.978 4.932 4.62 0 2.757-1.738 4.976-4.151 4.976-0.811 0-1.573-0.421-1.834-0.919 0 0-0.401 1.528-0.498 1.902-0.181 0.695-0.668 1.566-0.994 2.097 0.749 0.232 1.544 0.357 2.369 0.357 4.418-0 8-3.582 8-8s-3.582-8-8-8z" fill="#444444"></path>
</g>

</svg>
