<?xml version="1.0" encoding="utf-8"?>
<!-- Generator: Adobe Illustrator 18.0.0, SVG Export Plug-In . SVG Version: 6.00 Build 0)  -->
<!DOCTYPE svg PUBLIC "-//W3C//DTD SVG 1.1//EN" "http://www.w3.org/Graphics/SVG/1.1/DTD/svg11.dtd">
<svg version="1.1" id="Layer_1" xmlns="http://www.w3.org/2000/svg" xmlns:xlink="http://www.w3.org/1999/xlink" x="0px" y="0px"
	 viewBox="0 0 127.4 22.7" enable-background="new 0 0 127.4 22.7" xml:space="preserve">
<g>
	<path fill="#FFFFFF" d="M0.3,12.1L0.3,12.1c0-3.8,3-6.8,7-6.8c4,0,7,3,7,6.7v0c0,3.7-3,6.7-7,6.7C3.3,18.8,0.3,15.8,0.3,12.1z
		 M10.7,12.1L10.7,12.1c0-2-1.4-3.6-3.4-3.6C5.2,8.4,4,10.1,4,12v0c0,1.9,1.4,3.6,3.4,3.6C9.5,15.6,10.7,14,10.7,12.1z"/>
	<path fill="#FFFFFF" d="M17,7.2c0-1,0.8-1.8,1.8-1.8c1,0,1.8,0.8,1.8,1.8v0.2c0.9-1.2,2.1-2.1,4-2.1c3,0,5.9,2.4,5.9,6.7v0
		c0,4.3-2.8,6.7-5.9,6.7c-2,0-3.2-0.9-4-1.9v3.9c0,1-0.8,1.8-1.8,1.8c-1,0-1.8-0.8-1.8-1.8V7.2z M26.9,12L26.9,12
		c0-2.2-1.5-3.6-3.2-3.6c-1.7,0-3.1,1.4-3.1,3.6v0c0,2.2,1.4,3.6,3.1,3.6C25.5,15.6,26.9,14.2,26.9,12z"/>
	<path fill="#FFFFFF" d="M33.3,2.4c0-1.1,0.9-1.7,2.1-1.7c1.2,0,2.1,0.7,2.1,1.7v0c0,1.1-0.9,1.7-2.1,1.7
		C34.2,4.2,33.3,3.5,33.3,2.4L33.3,2.4z M33.5,7.2c0-1,0.8-1.8,1.8-1.8c1,0,1.8,0.8,1.8,1.8v9.6c0,1-0.8,1.8-1.8,1.8
		c-1,0-1.8-0.8-1.8-1.8V7.2z"/>
	<path fill="#FFFFFF" d="M40.6,7.2c0-1,0.8-1.8,1.8-1.8c1,0,1.8,0.8,1.8,1.8v0.1c0.8-1.1,1.9-2.1,3.8-2.1c2.8,0,4.4,1.8,4.4,4.8v6.7
		c0,1-0.8,1.8-1.8,1.8c-1,0-1.8-0.8-1.8-1.8v-5.5c0-1.7-0.8-2.6-2.2-2.6c-1.4,0-2.3,0.9-2.3,2.6v5.5c0,1-0.8,1.8-1.8,1.8
		c-1,0-1.8-0.8-1.8-1.8V7.2z"/>
	<path fill="#FFFFFF" d="M55.6,2.4c0-1.1,0.9-1.7,2.1-1.7c1.2,0,2.1,0.7,2.1,1.7v0c0,1.1-0.9,1.7-2.1,1.7
		C56.5,4.2,55.6,3.5,55.6,2.4L55.6,2.4z M55.9,7.2c0-1,0.8-1.8,1.8-1.8c1,0,1.8,0.8,1.8,1.8v9.6c0,1-0.8,1.8-1.8,1.8
		c-1,0-1.8-0.8-1.8-1.8V7.2z"/>
	<path fill="#FFFFFF" d="M62.4,12.1L62.4,12.1c0-3.8,3-6.8,7-6.8c4,0,7,3,7,6.7v0c0,3.7-3,6.7-7,6.7C65.3,18.8,62.4,15.8,62.4,12.1z
		 M72.8,12.1L72.8,12.1c0-2-1.4-3.6-3.4-3.6c-2.1,0-3.4,1.6-3.4,3.5v0c0,1.9,1.4,3.6,3.4,3.6C71.5,15.6,72.8,14,72.8,12.1z"/>
	<path fill="#FFFFFF" d="M79,7.2c0-1,0.8-1.8,1.8-1.8c1,0,1.8,0.8,1.8,1.8v0.1c0.8-1.1,1.9-2.1,3.8-2.1c2.8,0,4.4,1.8,4.4,4.8v6.7
		c0,1-0.8,1.8-1.8,1.8c-1,0-1.8-0.8-1.8-1.8v-5.5c0-1.7-0.8-2.6-2.2-2.6c-1.4,0-2.3,0.9-2.3,2.6v5.5c0,1-0.8,1.8-1.8,1.8
		c-1,0-1.8-0.8-1.8-1.8V7.2z"/>
	<path fill="#FFFFFF" d="M94.7,8.7h-0.1c-0.8,0-1.5-0.7-1.5-1.5c0-0.8,0.7-1.5,1.5-1.5h0.1V4.8c0-1.4,0.4-2.5,1-3.1
		c0.7-0.7,1.7-1,3-1c0.6,0,1.1,0,1.5,0.1c0.6,0.1,1.3,0.7,1.3,1.5s-0.7,1.5-1.5,1.5h-0.3c-0.8,0-1.3,0.4-1.3,1.4v0.5h1.6
		c0.8,0,1.5,0.7,1.5,1.5c0,0.8-0.7,1.5-1.5,1.5h-1.5v8.1c0,1-0.8,1.8-1.8,1.8c-1,0-1.8-0.8-1.8-1.8V8.7z"/>
	<path fill="#FFFFFF" d="M102.5,12.1L102.5,12.1c0-3.8,3-6.8,7-6.8c4,0,7,3,7,6.7v0c0,3.7-3,6.7-7,6.7
		C105.4,18.8,102.5,15.8,102.5,12.1z M112.9,12.1L112.9,12.1c0-2-1.4-3.6-3.4-3.6c-2.1,0-3.4,1.6-3.4,3.5v0c0,1.9,1.4,3.6,3.4,3.6
		C111.6,15.6,112.9,14,112.9,12.1z"/>
	<path fill="#FFFFFF" d="M119.1,7.2c0-1,0.8-1.8,1.8-1.8c1,0,1.8,0.8,1.8,1.8v0.6c0.5-1.3,1.4-2.4,2.5-2.4c1.1,0,1.8,0.7,1.8,1.8
		c0,1-0.6,1.5-1.4,1.7c-1.9,0.4-2.9,1.9-2.9,4.5v3.4c0,1-0.8,1.8-1.8,1.8c-1,0-1.8-0.8-1.8-1.8V7.2z"/>
</g>
</svg>
