<?xml version="1.0"?>
<!--Icons from directory ""-->
<svg xmlns="http://www.w3.org/2000/svg" width="26" height="78" viewBox="0 0 26 78"><svg xmlns:xlink="http://www.w3.org/1999/xlink" id="star-empty" xml:space="preserve" viewBox="0 0 26 26" version="1.1" y="0" x="0px" enable-background="new 0 0 26 26" width="26" height="26"><polygon id="star-empty-XMLID_1_" opacity=".35" stroke-linejoin="round" points="20.3 24.4 13 20.6 5.7 24.5 7.1 16.3 1.2 10.5 9.3 9.3 13 1.9 16.7 9.3 24.8 10.5 18.9 16.3" stroke="#22313F" stroke-linecap="round" stroke-miterlimit="10" fill="#22313F"/></svg><svg xmlns:xlink="http://www.w3.org/1999/xlink" id="star-full" xml:space="preserve" viewBox="0 0 26 26" version="1.1" y="26" x="0px" enable-background="new 0 0 26 26" width="26" height="26"><polygon id="star-full-XMLID_1_" stroke-linejoin="round" points="20.3 24.4 13 20.6 5.7 24.5 7.1 16.3 1.2 10.5 9.3 9.3 13 1.9 16.7 9.3 24.8 10.5 18.9 16.3" stroke="#22313F" stroke-linecap="round" stroke-miterlimit="10" fill="#22313F"/></svg><svg xmlns:xlink="http://www.w3.org/1999/xlink" id="star-highlight" xml:space="preserve" viewBox="0 0 26 26" version="1.1" y="52" x="0px" enable-background="new 0 0 26 26" width="26" height="26"><polygon id="star-highlight-XMLID_1_" opacity=".75" stroke-linejoin="round" points="20.3 24.4 13 20.6 5.7 24.5 7.1 16.3 1.2 10.5 9.3 9.3 13 1.9 16.7 9.3 24.8 10.5 18.9 16.3" stroke="#22313F" stroke-linecap="round" stroke-miterlimit="10" fill="#22313F"/></svg></svg>
