<?xml version="1.0" encoding="utf-8"?>
<!-- Generator: Adobe Illustrator 18.0.0, SVG Export Plug-In . SVG Version: 6.00 Build 0)  -->
<!DOCTYPE svg PUBLIC "-//W3C//DTD SVG 1.1//EN" "http://www.w3.org/Graphics/SVG/1.1/DTD/svg11.dtd">
<svg version="1.1" id="Layer_1" xmlns="http://www.w3.org/2000/svg" xmlns:xlink="http://www.w3.org/1999/xlink" x="0px" y="0px"
	 viewBox="0 0 32 32" enable-background="new 0 0 32 32" xml:space="preserve">
<g id="google_x2B_">
	<path fill="#4E4E54" d="M29.9,2.1C27.8,0,25.7,0,22.1,0H9.9C6.2,0,4.2,0,2.1,2.1C0,4.2,0,6.3,0,9.9v12.2c0,3.6,0,5.7,2.1,7.8
		C4.2,32,6.2,32,9.9,32h12.2c3.6,0,5.7,0,7.8-2.1c2.1-2.1,2.1-4.2,2.1-7.8V9.9C32,6.3,32,4.2,29.9,2.1z"/>
	<g>
		<path fill="#FFFFFF" d="M16.1,16.9c-0.3-0.2-0.9-0.8-0.9-1.1c0-0.4,0.1-0.6,0.7-1c0.6-0.4,1-1.1,1-1.8c0-0.9-0.4-1.7-1.1-2h1.1
			l0.8-0.6h-3.5c-1.6,0-3,1.2-3,2.5c0,1.4,1.1,2.5,2.6,2.5c0.1,0,0.2,0,0.3,0c-0.1,0.2-0.2,0.4-0.2,0.6c0,0.4,0.2,0.7,0.5,1
			c-0.2,0-0.4,0-0.6,0c-1.9,0-3.4,1.2-3.4,2.5c0,1.3,1.6,2,3.6,2c2.2,0,3.4-1.2,3.4-2.5C17.3,18.2,17,17.6,16.1,16.9z M14.2,15.2
			c-0.9,0-1.7-1-1.9-2.2c-0.2-1.2,0.4-2.1,1.3-2c0.9,0,1.7,1,1.9,2.1C15.7,14.3,15.1,15.2,14.2,15.2z M13.9,21.1
			c-1.3,0-2.3-0.8-2.3-1.9c0-1,1.2-1.8,2.5-1.8c0.3,0,0.6,0.1,0.9,0.1c0.7,0.5,1.2,0.8,1.4,1.4c0,0.1,0,0.2,0,0.4
			C16.4,20.3,15.8,21.1,13.9,21.1z"/>
		<polygon fill="#FFFFFF" points="19.8,15.3 19.8,13.9 18.7,13.9 18.7,15.3 17.4,15.3 17.4,16.4 18.7,16.4 18.7,17.7 19.8,17.7 
			19.8,16.4 21.2,16.4 21.2,15.3 		"/>
	</g>
</g>
</svg>
