<?xml version="1.0" encoding="utf-8"?>
<!-- Generator: Adobe Illustrator 18.0.0, SVG Export Plug-In . SVG Version: 6.00 Build 0)  -->
<!DOCTYPE svg PUBLIC "-//W3C//DTD SVG 1.1//EN" "http://www.w3.org/Graphics/SVG/1.1/DTD/svg11.dtd">
<svg version="1.1" id="Layer_1" xmlns="http://www.w3.org/2000/svg" xmlns:xlink="http://www.w3.org/1999/xlink" x="0px" y="0px"
	 viewBox="0 0 32 32" enable-background="new 0 0 32 32" xml:space="preserve">
<g id="facebook">
	<path fill="#507CBD" d="M29.9,2.1C27.8,0,25.7,0,22.1,0H9.9C6.3,0,4.2,0,2.1,2.1C0,4.2,0,6.3,0,9.9v12.2c0,3.6,0,5.7,2.1,7.8
		C4.2,32,6.3,32,9.9,32h12.2c3.6,0,5.7,0,7.8-2.1c2.1-2.1,2.1-4.2,2.1-7.8V9.9C32,6.3,32,4.2,29.9,2.1z"/>
	<path fill="#FFFFFF" d="M16.8,14v-1.2c0-0.4,0.3-0.5,0.5-0.5c0.2,0,1.3,0,1.3,0v-2l-1.8,0c-1.9,0-2.4,1.5-2.4,2.4V14h-1.1v2h1.1
		c0,2.6,0,5.7,0,5.7h2.4c0,0,0-3.1,0-5.7h1.6l0.2-2H16.8z"/>
</g>
</svg>
