<?xml version="1.0" encoding="utf-8"?>
<!-- Generator: Adobe Illustrator 18.0.0, SVG Export Plug-In . SVG Version: 6.00 Build 0)  -->
<!DOCTYPE svg PUBLIC "-//W3C//DTD SVG 1.1//EN" "http://www.w3.org/Graphics/SVG/1.1/DTD/svg11.dtd">
<svg version="1.1" id="Layer_1" xmlns="http://www.w3.org/2000/svg" xmlns:xlink="http://www.w3.org/1999/xlink" x="0px" y="0px"
	 viewBox="0 0 32 32" enable-background="new 0 0 32 32" xml:space="preserve">
<g id="twitter">
	<path fill="#64CBEE" d="M29.9,2.1C27.8,0,25.7,0,22.1,0H9.9C6.3,0,4.2,0,2.1,2.1C0,4.2,0,6.3,0,9.9v12.2c0,3.6,0,5.7,2.1,7.8
		C4.2,32,6.3,32,9.9,32h12.2c3.6,0,5.7,0,7.8-2.1c2.1-2.1,2.1-4.2,2.1-7.8V9.9C32,6.3,32,4.2,29.9,2.1z"/>
	<path fill="#FFFFFF" d="M21.5,12.1c-0.4,0.2-0.9,0.3-1.4,0.4c0.5-0.3,0.9-0.8,1-1.4c-0.5,0.3-1,0.5-1.5,0.6c-0.4-0.5-1-0.8-1.7-0.8
		c-1.3,0-2.3,1.1-2.3,2.5c0,0.2,0,0.4,0.1,0.6c-1.9-0.1-3.7-1.1-4.8-2.6c-0.2,0.4-0.3,0.8-0.3,1.3c0,0.9,0.4,1.7,1,2.1
		c-0.4,0-0.7-0.1-1.1-0.3c0,0,0,0,0,0c0,1.2,0.8,2.2,1.9,2.5c-0.2,0.1-0.4,0.1-0.6,0.1c-0.2,0-0.3,0-0.4,0c0.3,1,1.2,1.7,2.2,1.8
		c-0.8,0.7-1.8,1.1-2.9,1.1c-0.2,0-0.4,0-0.6,0c1,0.7,2.3,1.1,3.6,1.1c4.3,0,6.7-3.9,6.7-7.2c0-0.1,0-0.2,0-0.3
		C20.8,13.1,21.2,12.6,21.5,12.1z"/>
</g>
</svg>
