<?xml version="1.0" encoding="utf-8"?>
<!-- Generator: Adobe Illustrator 18.0.0, SVG Export Plug-In . SVG Version: 6.00 Build 0)  -->
<!DOCTYPE svg PUBLIC "-//W3C//DTD SVG 1.1//EN" "http://www.w3.org/Graphics/SVG/1.1/DTD/svg11.dtd">
<svg version="1.1" id="Layer_1" xmlns="http://www.w3.org/2000/svg" xmlns:xlink="http://www.w3.org/1999/xlink" x="0px" y="0px"
	 viewBox="0 0 32 32" enable-background="new 0 0 32 32" xml:space="preserve">
<g id="pinterest">
	<path fill="#F06361" d="M29.9,2.1C27.8,0,25.7,0,22.1,0H9.9C6.3,0,4.2,0,2.1,2.1C0,4.2,0,6.3,0,9.9v12.2c0,3.6,0,5.7,2.1,7.8
		C4.2,32,6.3,32,9.9,32h12.2c3.6,0,5.7,0,7.8-2.1c2.1-2.1,2.1-4.2,2.1-7.8V9.9C32,6.3,32,4.2,29.9,2.1z"/>
	<path fill="#FFFFFF" d="M15.7,10.6c-3,0-5.4,2.4-5.4,5.4c0,2.2,1.3,4.1,3.3,5c0-0.4,0-0.8,0.1-1.3c0.1-0.4,0.7-3,0.7-3
		s-0.2-0.3-0.2-0.9c0-0.8,0.5-1.4,1.1-1.4c0.5,0,0.7,0.4,0.7,0.8c0,0.5-0.3,1.2-0.5,1.9c-0.1,0.6,0.3,1,0.9,1c1,0,1.7-1.3,1.7-2.9
		c0-1.2-0.8-2.1-2.3-2.1c-1.7,0-2.7,1.2-2.7,2.6c0,0.5,0.1,0.8,0.4,1.1c0.1,0.1,0.1,0.2,0.1,0.3c0,0.1-0.1,0.3-0.1,0.4
		c0,0.1-0.1,0.2-0.3,0.1c-0.8-0.3-1.1-1.1-1.1-2.1c0-1.5,1.3-3.4,3.9-3.4c2.1,0,3.5,1.5,3.5,3.1c0,2.1-1.2,3.7-2.9,3.7
		c-0.6,0-1.1-0.3-1.3-0.7c0,0-0.3,1.3-0.4,1.5c-0.1,0.4-0.3,0.8-0.5,1.2c0.5,0.1,1,0.2,1.5,0.2c3,0,5.4-2.4,5.4-5.4
		C21.2,13,18.8,10.6,15.7,10.6z"/>
</g>
</svg>
